<svg width="800" height="1152" viewBox="0 0 695 1152" fill="none" xmlns="http://www.w3.org/2000/svg">
<path fill-rule="evenodd" clip-rule="evenodd" d="M680.585 27.382L684.305 34.2462L680.368 27.4417V519.214C679.243 519.214 674.741 523.524 674.741 532.146C674.741 542.923 678.117 547.952 680.368 547.234V538.612L695 575.254H694.04L679.638 611.323V602.702C677.387 601.983 674.01 607.012 674.01 617.789C674.01 626.411 678.512 630.722 679.638 630.722V1121.92L682.522 1116.91L679.638 1122.26V1128.12L682.211 1126.01L679.638 1128.43V1132.86H678.53V1134.2H674.913L672.568 1139.08L674.606 1134.2H669.831L664.71 1139.61L669.507 1134.2H381.384C381.384 1132.9 378.833 1127.68 373.731 1127.68C367.354 1127.68 364.378 1131.59 364.803 1134.2H369.905L348.559 1150.89V1152L326.876 1135.05H331.978C332.403 1132.44 329.427 1128.53 323.049 1128.53C317.948 1128.53 315.397 1133.75 315.397 1135.05H23.6918L29.5598 1141.67L23.6356 1135.41V1135.05H19.16L21.7015 1141.14L18.7771 1135.05H18.2507V1134.91H14.6316V1126.92L14.5695 1126.86L14.6316 1126.91V1118.45L14.2581 1117.75L14.6316 1118.4V631.856C15.7571 631.856 20.2591 627.537 20.2591 618.9C20.2591 608.103 16.8826 603.065 14.6316 603.784V612.422L0 575.713H0.959168L15.3623 539.577V548.214C17.6133 548.934 20.9898 543.896 20.9898 533.099C20.9898 524.461 16.4878 520.143 15.3623 520.143V30.1058L12.4776 35.0923L15.3623 29.7693V23.8965L12.7908 25.9883L15.3623 23.5814V17.0855H19.4425L22.4323 10.8542L19.8643 17.0127V17.7976H315.222C315.222 19.1015 317.787 24.3171 322.916 24.3171C329.328 24.3171 332.32 20.4054 331.892 17.7976H326.763L348.22 1.11255V0L370.019 16.9508H364.89C364.462 19.5586 367.454 23.4703 373.866 23.4703C378.995 23.4703 381.56 18.2547 381.56 16.9508H671.319L665.44 10.3282L671.364 16.5799V16.9508H675.845L673.298 10.8544L676.229 16.9508H680.291V17.0745H680.368V21.7505L683.992 25.1418L680.368 22.1945V27.382H680.585ZM19.8643 23.0132H310.574C312.658 29.5327 327.532 35.5307 335.739 23.0132V13.8858H342.15V24.3171L348.562 28.2288V27.1735L354.632 23.4703V13.039H361.043V22.1664C369.25 34.6839 384.124 28.6859 386.208 22.1664H675.866V511.4C670.239 514.903 665.062 539.906 675.866 553.7H683.745V564.477H674.741L671.544 574.681H670.634L674.01 585.458H683.014V596.235H675.136C664.331 610.03 669.508 635.033 675.136 638.535V1128.99H386.008C383.935 1122.47 369.139 1116.47 360.976 1128.99V1138.11H354.599V1127.68L348.221 1123.77V1124.83L342.182 1128.53V1138.96H335.804V1129.83C327.641 1117.32 312.846 1123.31 310.773 1129.83H19.1336V639.684C24.7611 636.175 29.9385 611.126 19.1336 597.306H11.2551V586.51H20.2591L23.4564 576.286H24.3663L20.9898 565.489H11.9858V554.692H19.8643C30.6692 540.872 25.4918 515.824 19.8643 512.315V23.0132ZM30.2905 10.3268L24.3663 16.5901V17.0127L30.2905 10.3268Z" fill="#A9B2B3"/>
</svg>
