<svg width="429" height="251" viewBox="0 0 429 251" fill="none" xmlns="http://www.w3.org/2000/svg">
<g clip-path="url(#clip0_119_99)">
<path d="M223.106 142.297H229.395V140.717L227.823 139.136H219.961L218.388 140.717V153.361L219.961 154.941H227.823L229.395 153.361V151.78H223.106V148.619H229.395V145.458H223.106V142.297Z" fill="#424242"/>
<path d="M228.347 125H219.437V133.956H228.347V125Z" fill="#05E7FF"/>
<path d="M211.051 139.136V145.458H206.334V139.136H203.189L201.616 140.717V153.361L203.189 154.941H206.334V148.619H211.051V154.941H214.195L215.768 153.361V140.717L214.195 139.136H211.051Z" fill="#424242"/>
<path d="M186.417 139.136L184.844 140.717V142.297H189.562V153.361L191.134 154.941H192.706L194.279 153.361V142.297H198.996V140.717L197.424 139.136H186.417Z" fill="#424242"/>
<path d="M15.2895 160.385L9 166.707V191.995L15.2895 198.317H40.4476V210.961H27.8686V204.639H9V217.283L15.2895 223.605H53.0266L59.3161 217.283V191.995L53.0266 185.673H27.8686V173.029H40.4476V179.351H59.3161V166.707L53.0266 160.385H15.2895Z" fill="#424242"/>
<path d="M185.106 160.385V223.605H229.133L235.423 217.283V166.707L229.133 160.385H185.106ZM203.975 173.029H216.554V210.961H203.975V173.029Z" fill="#424242"/>
<path d="M241.712 160.385V223.605H285.739L292.028 217.283V198.317L285.739 191.995L292.028 185.673V166.707L285.739 160.385H241.712ZM260.581 198.317H273.16V210.961H260.581V198.317ZM260.581 185.673V173.029H273.16V185.673H260.581Z" fill="#424242"/>
<path d="M304.607 160.385L298.318 166.707V217.283L304.607 223.605H342.344L348.634 217.283V166.707L342.344 160.385H304.607ZM317.186 173.029H329.765V210.961H317.186V173.029Z" fill="#424242"/>
<path d="M417.117 180.068L405.257 191.989L417.117 203.909L428.976 191.989L417.117 180.068Z" fill="#05E7FF"/>
<path d="M90.069 227.127L78.2095 239.048L90.069 250.969L101.928 239.048L90.069 227.127Z" fill="#05E7FF"/>
<path d="M386.371 160.385V179.351L380.082 185.673L373.792 179.351V160.385H361.213L354.924 166.707V185.673L361.213 191.995L354.924 198.317V217.283L361.213 223.605H373.792V204.639L380.082 198.317L386.371 204.639V223.605H398.95L405.24 217.283V198.317L398.95 191.995L405.24 185.673V166.707L398.95 160.385H386.371Z" fill="#424242"/>
<path d="M159.949 160.385V179.351L141.08 160.385H128.501L122.211 166.707V217.283L128.501 223.605H141.08V185.673L159.949 204.639V223.605H172.528L178.817 217.283V166.707L172.528 160.385H159.949Z" fill="#424242"/>
<path d="M109.632 160.561H71.8952L65.6057 166.883V217.459L71.8952 223.781H84.4743V198.493H97.0533V223.781H109.632L115.922 217.459V166.883L109.632 160.561ZM90.7638 188.132L82.7272 180.054L90.7638 171.976L98.8004 180.054L90.7638 188.132Z" fill="#424242"/>
</g>
<path d="M0.0743145 0.00239302H47.2408C47.4753 0.0693976 47.717 0.0143581 47.9539 0.0335023C48.0903 0.0335023 48.2267 0.0335023 48.3631 0.0335023C48.478 0.0335023 48.5952 0.0335023 48.7101 0.0335023C52.0771 0.00239302 55.334 0.605434 58.4951 1.73733C60.9217 2.60839 63.1448 3.85755 65.1334 5.50156C66.976 7.02591 68.5985 8.74888 69.8189 10.8236C70.9867 12.8051 71.7836 14.9277 72.2311 17.1819C72.4488 18.2731 72.614 19.3739 72.6642 20.4867C72.6738 20.7044 72.724 20.9198 72.7097 21.1399C72.7001 21.2859 72.6714 21.4175 72.5254 21.4893C72.2933 21.5707 72.0516 21.5372 71.8147 21.5372C61.3357 21.5372 50.8566 21.5372 40.3776 21.5372C35.9648 21.5372 31.5521 21.5372 27.1394 21.5372C26.5172 21.5372 26.5124 21.542 26.5124 22.1761C26.5124 41.3921 26.5124 60.608 26.51 79.8264C26.51 80.0896 26.5746 80.3672 26.4095 80.6113C26.3162 80.6975 26.1989 80.7142 26.0769 80.719C25.9572 80.7238 25.8376 80.7238 25.7179 80.7238C17.3878 80.7238 9.05772 80.7238 0.727609 80.7214C0.507451 80.7214 0.265756 80.7884 0.0719215 80.6065C0.021668 80.5012 0.0455982 80.3911 0.0455982 80.2835C0.0455982 53.63 0.0455982 26.9765 0.0455982 0.323058C0.0455982 0.215372 0.019275 0.105293 0.0743145 0V0.00239302Z" fill="#B9244C"/>
<path d="M72.5759 21.3792C72.5639 20.1923 72.4275 19.0173 72.2265 17.8519C71.7431 15.0665 70.8074 12.4461 69.2041 10.1057C66.7513 6.52816 63.4728 3.95566 59.4884 2.27098C57.2605 1.33052 54.9321 0.751409 52.5415 0.409207C51.2804 0.22973 50.0121 0.114865 48.7414 0.0502534C48.6983 0.0358953 48.6959 0.0215372 48.7366 0H102C102.055 0.1029 102.029 0.215372 102.029 0.323058C102.029 26.3304 102.029 52.3402 102.029 78.3475C102.032 78.3834 102.024 78.4169 102.005 78.448C101.814 78.448 101.831 78.2925 101.814 78.1728C101.701 77.3664 101.615 76.5551 101.464 75.7535C101.122 73.9372 100.581 72.1855 99.8037 70.5056C99.0642 68.9023 98.1046 67.4425 96.9679 66.1048C95.4675 64.3388 93.6871 62.8958 91.7224 61.6729C91.2247 61.3618 90.715 61.0723 90.1981 60.7899C89.8607 60.6057 89.8487 60.4118 90.1622 60.1845C91.4353 59.2703 92.6198 58.2557 93.6919 57.1118C95.3646 55.3266 96.6568 53.3022 97.5375 51.0168C98.0759 49.6169 98.4277 48.1691 98.6239 46.6878C98.7005 46.1087 98.7723 45.5248 98.7675 44.9362C98.7651 44.4982 98.8393 44.0651 98.8249 43.6248C98.7412 41.0092 98.4349 38.4319 97.571 35.9456C96.8052 33.744 95.714 31.7243 94.192 29.9487C92.414 27.8715 90.3393 26.1605 87.9438 24.8372C85.5771 23.5306 83.0453 22.7026 80.401 22.1881C79.0059 21.9153 77.5964 21.743 76.1774 21.6377C75.134 21.5611 74.093 21.5228 73.0497 21.53C72.9037 21.53 72.7482 21.5587 72.6142 21.463C72.5902 21.4415 72.5759 21.4128 72.5711 21.3792H72.5759Z" fill="#FFC715"/>
<path d="M0.0743332 0.00292969C0.0743332 26.7378 0.0743332 53.4702 0.0743332 80.205C0.0743332 80.3342 0.0815122 80.4635 0.0839052 80.5927C0.182019 80.6788 0.201163 80.7961 0.203556 80.9181C0.208342 81.088 0.208342 81.258 0.208342 81.4255C0.208342 88.0111 0.208342 94.5966 0.208342 101.182C0.208342 101.634 0.433286 101.86 0.883174 101.862C9.15106 101.862 17.4189 101.862 25.6892 101.862C25.919 101.862 26.1463 101.862 26.376 101.879C26.6153 101.862 26.8546 101.862 27.0915 101.862C42.5864 101.862 58.0788 101.862 73.5736 101.862C73.8033 101.862 74.0306 101.871 74.2604 101.843C74.7127 101.929 75.1721 101.907 75.6292 101.907C84.2369 101.907 92.8446 101.907 101.452 101.907C101.622 101.907 101.792 101.891 101.957 101.929C101.993 101.946 102.027 101.97 102.055 101.996C102.043 102.015 102.086 102.058 102.027 102.056C101.948 102.053 101.866 102.056 101.787 102.056C67.9572 102.056 34.127 102.056 0.296884 102.063C0.055189 102.063 0.00732858 102.015 0.00732858 101.773C0.0169007 67.9384 0.0145076 34.1059 0.0192937 0.273341C0.0192937 0.184799 -0.0501039 0.0699343 0.0743332 0.00532271V0.00292969Z" fill="white"/>
<path d="M101.991 78.4455C101.993 78.2756 102 78.1081 102 77.9382C102 51.9596 102 25.9809 102 0.00467601C102.02 0.0166411 102.063 -0.0264333 102.06 0.0333923C102.058 0.112362 102.06 0.193725 102.06 0.272694V79.5176C102.022 79.5367 101.988 79.532 101.96 79.5032C101.802 79.2663 101.9 78.9983 101.862 78.747C101.876 78.6346 101.919 78.5341 101.993 78.4455H101.991Z" fill="#FEE288"/>
<path d="M102.06 79.9963V81.3723C102.022 81.3915 101.986 81.3843 101.955 81.3532C101.816 80.9081 101.816 80.4606 101.955 80.0155C101.986 79.9844 102.02 79.9796 102.06 79.9963Z" fill="#A2CBAE"/>
<path d="M47.9613 0.0574809C47.722 0.0383367 47.4731 0.124485 47.241 0.00244141H47.9589C47.9996 0.0191926 47.9996 0.0383367 47.9613 0.0574809Z" fill="#CB545B"/>
<path d="M102.06 79.9964C102.043 79.9964 102.029 79.9964 102.012 79.9964C101.828 79.8384 101.833 79.6781 102.007 79.5154C102.024 79.5154 102.041 79.5154 102.058 79.5178V79.9964H102.06Z" fill="#D0D88C"/>
<path d="M47.9611 0.0574809C47.9587 0.0383367 47.9587 0.0215856 47.9587 0.00244141H48.3775C48.4014 0.0120135 48.4086 0.0215856 48.4038 0.0335507C48.3967 0.0455158 48.3895 0.0526948 48.3823 0.0526948C48.2411 0.0526948 48.1023 0.0574809 47.9611 0.0574809Z" fill="#DC7B4C"/>
<path d="M48.3822 0.0526948C48.3822 0.0359437 48.3798 0.0191926 48.3774 0.00244141H48.7364C48.7364 0.0191926 48.7388 0.0359437 48.7412 0.0526948C48.6215 0.0526948 48.5043 0.0526948 48.3846 0.0526948H48.3822Z" fill="#EC9D24"/>
<path d="M102.008 81.3652C102.027 81.3628 102.044 81.3652 102.06 81.37V81.6691L102.036 81.6739H102.012C101.898 81.5734 101.9 81.4705 102.005 81.3652H102.008Z" fill="#B79BA0"/>
<path d="M26.3689 80.5825C26.3713 80.4437 26.3785 80.3049 26.3785 80.1638C26.3785 60.7396 26.3785 41.3131 26.3785 21.8889C26.3785 21.5603 26.5484 21.396 26.8882 21.396C41.9786 21.396 57.069 21.396 72.1593 21.396C72.2981 21.396 72.4369 21.3864 72.5757 21.3816C72.5805 21.3912 72.5877 21.4007 72.5973 21.4103C72.7097 21.5036 72.7121 21.6329 72.7169 21.7645C72.7983 24.1814 72.5351 26.5529 71.786 28.8574C71.1974 30.6689 70.3335 32.344 69.2255 33.8947C68.4071 35.0433 67.4571 36.0747 66.4352 37.0367C65.7628 37.6709 65.0449 38.2572 64.2935 38.798C64.2361 38.8387 64.181 38.8818 64.1284 38.9248C63.9297 39.0923 63.9321 39.1211 64.169 39.2527C64.9875 39.7073 65.7915 40.186 66.5597 40.7196C67.469 41.349 68.3281 42.0381 69.1465 42.7848C70.6302 44.1344 71.8674 45.6827 72.8892 47.4057C73.9493 49.1933 74.6768 51.1125 75.1602 53.1274C75.433 54.2593 75.5933 55.4104 75.7154 56.5686C75.8494 57.8488 75.8733 59.1339 75.8111 60.4142C75.7225 62.2951 75.3205 64.1162 74.5763 65.8559C73.7914 67.6913 72.7385 69.3545 71.4247 70.8621C69.3691 73.224 66.933 75.1025 64.2097 76.6245C61.3094 78.2446 58.2104 79.3214 54.9487 79.946C53.4746 80.2284 51.991 80.4461 50.4929 80.5538C49.7894 80.6041 49.0858 80.6543 48.3799 80.6687C41.1889 80.8003 33.9978 80.6878 26.8068 80.7237C26.6776 80.7237 26.546 80.7429 26.4287 80.6639C26.4 80.6447 26.3809 80.6184 26.3689 80.5849V80.5825Z" fill="#2F3A8C"/>
<path d="M26.3784 101.976C26.2683 101.981 26.1606 101.988 26.0506 101.988C17.5147 101.988 8.98114 101.988 0.445236 101.995C0.153287 101.995 0.0671387 101.94 0.0671387 101.627C0.0767108 94.7135 0.0743177 87.8024 0.0767108 80.889C0.0767108 80.7885 0.0838898 80.6903 0.0862828 80.5898C8.71791 80.5898 17.3495 80.5898 25.9812 80.5898C26.1104 80.5898 26.2396 80.5827 26.3688 80.5779L26.388 80.597C26.4789 80.6736 26.5028 80.7789 26.5076 80.8914C26.5124 81.011 26.5124 81.1307 26.5124 81.2503C26.5124 87.9436 26.5124 94.6345 26.5076 101.328C26.5076 101.546 26.5866 101.792 26.3784 101.974V101.976Z" fill="#FFC815"/>
<path d="M26.3784 101.976C26.3784 94.9312 26.3784 87.8838 26.3784 80.8387C26.3784 80.7597 26.3856 80.6808 26.388 80.5994C26.5076 80.597 26.6273 80.5922 26.7469 80.5922C33.5 80.5922 40.2532 80.6114 47.0087 80.585C51.1701 80.5683 55.2598 80.0203 59.2178 78.6826C63.4511 77.2492 67.1938 75.0117 70.3478 71.8314C72.7193 69.4408 74.4398 66.6648 75.2511 63.3649C75.6938 61.5677 75.768 59.7442 75.6818 57.9088C75.5789 55.6833 75.2248 53.5008 74.526 51.3782C73.0686 46.9511 70.3334 43.4956 66.5237 40.8585C65.6886 40.2818 64.8199 39.7577 63.9249 39.2767C63.8388 39.2312 63.7574 39.181 63.6665 39.1283C63.7359 38.9943 63.8627 38.9465 63.9656 38.8723C66.7008 36.8981 68.9766 34.5122 70.5344 31.4922C71.5108 29.6017 72.1114 27.594 72.4106 25.4881C72.6044 24.1313 72.602 22.7697 72.5948 21.4056C74.0594 21.3697 75.5191 21.4391 76.9788 21.5731C78.6946 21.7287 80.3889 21.9991 82.0616 22.4179C85.2731 23.2243 88.2308 24.5572 90.8679 26.5865C95.0174 29.7764 97.6019 33.9187 98.5208 39.0805C98.7482 40.3631 98.8606 41.6602 98.9109 42.9644C99.0042 45.4435 98.7314 47.8677 97.9609 50.2272C96.8936 53.496 94.9911 56.2145 92.4569 58.5094C91.7318 59.1651 90.9732 59.7777 90.1716 60.3353C89.9706 60.4765 89.9945 60.5267 90.2003 60.6368C92.4545 61.8381 94.5149 63.305 96.2905 65.1548C98.7123 67.6795 100.337 70.6492 101.223 74.0282C101.603 75.4736 101.835 76.9453 101.95 78.4337C102.003 78.5294 101.945 78.6419 101.991 78.7376C101.998 78.9937 102.005 79.2497 102.01 79.5058C102.01 79.6661 102.012 79.8265 102.015 79.9868C102.015 80.4439 102.01 80.9009 102.01 81.358C102.01 81.4609 102.015 81.5638 102.017 81.6667C102.007 81.8797 102 82.0903 101.991 82.3032C101.952 83.2269 101.885 84.1459 101.641 85.0432C101.019 87.3286 99.9758 89.3985 98.5352 91.2771C97.9393 92.0524 97.2908 92.7799 96.6016 93.4667C95.1179 94.9456 93.4715 96.2258 91.6887 97.3314C89.5972 98.626 87.3693 99.6215 85.0266 100.366C83.2127 100.942 81.3653 101.364 79.4843 101.639C78.8047 101.739 78.1251 101.799 77.4407 101.849C76.8472 101.893 76.2538 101.926 75.6579 101.926C75.196 101.988 74.7294 101.926 74.2676 101.971C69.3355 101.971 64.4035 101.976 59.4715 101.976C48.5809 101.976 37.6926 101.976 26.802 101.976C26.6632 101.976 26.5244 101.971 26.3832 101.967L26.3784 101.976Z" fill="#4FBA93"/>
<path d="M101.988 78.7448C101.924 78.6491 101.938 78.5438 101.948 78.4409C101.962 78.4409 101.976 78.4457 101.991 78.4457C101.991 78.5462 101.991 78.6443 101.991 78.7448H101.988Z" fill="#D8C42E"/>
<path d="M101.986 101.943C93.3927 101.943 84.8017 101.943 76.2084 101.943C76.0409 101.943 75.8686 101.962 75.7083 101.895C79.2954 101.701 82.7964 101.072 86.1801 99.8464C90.0042 98.4608 93.407 96.3932 96.3289 93.5503C98.4994 91.4421 100.186 89.0179 101.165 86.1344C101.572 84.9378 101.842 83.7102 101.948 82.4491C101.953 82.4012 101.974 82.3558 101.986 82.3103C101.991 82.4587 101.998 82.6094 101.998 82.7578C101.998 89.0443 101.998 95.3307 101.998 101.615C101.998 101.725 101.988 101.833 101.984 101.943H101.986Z" fill="#B9244C"/>
<path d="M194.223 51.1731C194.223 56.0667 194.189 60.967 194.25 65.8606C194.263 66.9285 193.946 67.2327 192.884 67.2124C189.863 67.1448 186.835 67.1381 183.814 67.2124C182.759 67.2395 182.543 66.861 182.584 65.9214C182.651 64.3128 182.563 62.6906 182.617 61.0819C182.644 60.2708 182.442 59.9261 181.556 59.9667C179.995 60.0343 178.427 60.014 176.859 59.9734C176.081 59.9532 175.818 60.2438 175.838 61.0143C175.879 62.7379 175.824 64.4547 175.865 66.1783C175.885 66.9353 175.655 67.2192 174.858 67.2057C171.728 67.1651 168.592 67.1381 165.463 67.2124C164.219 67.2462 164.395 66.5095 164.395 65.766C164.395 59.8991 164.395 54.039 164.395 48.1721C164.395 44.2991 164.435 40.4261 164.368 36.5532C164.348 35.465 164.692 35.2149 165.726 35.2419C168.694 35.3095 171.668 35.3095 174.635 35.2419C175.662 35.2149 175.912 35.5325 175.879 36.5059C175.804 38.6553 175.892 40.8114 175.838 42.9608C175.818 43.8192 176.108 44.0828 176.946 44.0558C178.508 44.0017 180.076 44.0017 181.644 44.0558C182.448 44.0828 182.638 43.7786 182.624 43.0351C182.584 40.7776 182.638 38.5133 182.597 36.2558C182.584 35.492 182.793 35.2419 183.584 35.2487C186.767 35.2892 189.958 35.3095 193.141 35.2487C194.169 35.2284 194.25 35.6745 194.243 36.4991C194.216 41.3927 194.229 46.293 194.229 51.1866L194.223 51.1731Z" fill="#2F3A8C"/>
<path d="M396.394 35.2552C400.896 35.2552 405.1 35.2755 409.304 35.235C410.041 35.2282 410.345 35.5999 410.663 36.1339C411.339 37.2762 412.042 38.405 412.832 39.696C413.643 38.3644 414.333 37.2289 415.016 36.0798C415.293 35.6135 415.536 35.2282 416.225 35.235C420.477 35.2687 424.722 35.2552 429 35.2552C429.007 36.0055 428.547 36.4381 428.257 36.9247C425.641 41.3114 423.032 45.698 420.355 50.0441C419.828 50.9025 419.869 51.5244 420.375 52.3557C423.045 56.7086 425.654 61.0953 428.263 65.4819C428.554 65.9686 429.034 66.3944 428.98 67.1852C424.722 67.1852 420.477 67.1717 416.239 67.1987C415.563 67.1987 415.306 66.7797 415.029 66.3133C414.34 65.1575 413.65 64.0084 412.907 62.7783C411.92 63.8327 411.399 65.1304 410.642 66.2727C410.311 66.7729 410.068 67.219 409.311 67.2122C405.107 67.1717 400.903 67.192 396.692 67.192C396.529 66.4485 397.05 66.0362 397.334 65.5563C399.916 61.2169 402.498 56.8708 405.161 52.572C405.776 51.5852 405.83 50.889 405.195 49.8549C402.254 45.11 399.422 40.3043 396.387 35.2552H396.394Z" fill="#B9244C"/>
<path d="M298.563 67.1853C294.054 67.1853 289.904 67.1718 285.747 67.1988C285.058 67.1988 284.673 66.9758 284.348 66.3877C283.699 65.2184 282.969 64.0964 282.125 62.6973C281.374 63.9342 280.685 64.9819 280.083 66.0836C279.658 66.8609 279.164 67.2326 278.198 67.2124C274.527 67.1448 270.857 67.138 267.187 67.2124C265.876 67.2394 265.754 66.9285 266.329 65.8132C270.675 57.4184 274.98 49.0034 279.299 40.6018C280.185 38.885 281.077 37.1749 282.118 35.1675C287.62 45.8806 293.02 56.3843 298.569 67.1853H298.563Z" fill="#2F3A8C"/>
<path d="M213.263 35.1472C218.772 45.8739 224.186 56.4046 229.722 67.1853C225.193 67.1853 220.914 67.1718 216.636 67.1989C215.933 67.1989 215.73 66.7257 215.453 66.2796C214.75 65.1373 214.068 63.9883 213.283 62.6973C212.493 64.0086 211.769 65.1711 211.08 66.354C210.762 66.9015 210.397 67.2124 209.681 67.2056C205.483 67.1718 201.279 67.1853 196.812 67.1853C202.32 56.4587 207.741 45.9009 213.27 35.1472H213.263Z" fill="#2F3A8C"/>
<path d="M308.053 35.2554C312.48 35.2554 316.907 35.2825 321.334 35.2352C322.314 35.2216 322.659 35.4582 322.612 36.4856C322.524 38.3646 322.524 40.2572 322.612 42.1362C322.666 43.1974 322.253 43.3866 321.307 43.3596C319.259 43.2988 317.204 43.4001 315.15 43.319C314.102 43.2785 313.798 43.5691 313.805 44.6438C313.852 51.6395 313.798 58.6351 313.859 65.6308C313.872 66.9218 313.507 67.2665 312.243 67.226C309.384 67.1313 306.518 67.1178 303.659 67.226C302.368 67.2733 302.179 66.8204 302.186 65.6781C302.24 58.7906 302.159 51.9031 302.253 45.0156C302.274 43.515 301.807 43.2379 300.462 43.319C298.576 43.4339 296.684 43.292 294.791 43.3663C293.777 43.4069 293.372 43.1771 293.433 42.0686C293.534 40.2436 293.521 38.4052 293.433 36.5802C293.385 35.5326 293.683 35.2284 294.757 35.2419C299.185 35.3027 303.612 35.269 308.039 35.269L308.053 35.2554Z" fill="#2F3A8C"/>
<path fill-rule="evenodd" clip-rule="evenodd" d="M393.159 54.8685C393.161 53.5942 393.163 52.3196 393.163 51.0446L393.157 51.0378C393.157 49.7769 393.154 48.5165 393.152 47.2563C393.145 43.7269 393.139 40.1993 393.184 36.668C393.197 35.5595 392.92 35.2283 391.764 35.2283C381.99 35.2756 372.217 35.2756 362.443 35.2283C361.328 35.2283 361.132 35.5933 361.132 36.6004C361.172 46.3402 361.179 56.0801 361.132 65.8199C361.125 67.0095 361.537 67.2123 362.619 67.2123C372.284 67.1785 381.95 67.165 391.615 67.2258C392.967 67.2393 393.204 66.7797 393.19 65.5766C393.146 62.0054 393.152 58.4378 393.159 54.8685ZM369.31 51.2271C369.324 55.5394 372.805 58.9797 377.158 58.9797L377.151 58.973C381.49 58.9797 384.971 55.5394 385.005 51.2203C385.039 46.9824 381.504 43.3933 377.239 43.3324C372.933 43.2784 369.297 46.8945 369.31 51.2271Z" fill="#B9244C"/>
<path fill-rule="evenodd" clip-rule="evenodd" d="M352.73 50.6931C354.521 51.8151 355.893 53.0656 356.664 54.8702C358.489 59.1285 356.995 63.2786 352.811 65.5429C350.729 66.6716 348.472 67.1583 346.127 67.1718C343.408 67.1907 340.689 67.189 337.97 67.1874C334.862 67.1854 331.755 67.1835 328.647 67.2123C327.512 67.2259 327.194 66.9082 327.201 65.7727C327.242 56.0396 327.242 46.3065 327.201 36.5734C327.201 35.5257 327.471 35.2148 328.539 35.2215C331.588 35.2486 334.636 35.2452 337.684 35.2418C340.733 35.2384 343.781 35.2351 346.829 35.2621C351.257 35.3027 356.596 38.0063 356.089 44.887C355.907 47.3203 354.717 49.125 352.73 50.6864V50.6931ZM340.942 47.8949C337.654 47.9014 337.654 47.8953 337.522 44.8012L337.509 44.495C337.434 42.8323 337.928 42.3456 339.53 42.5214C340.259 42.6 340.997 42.5917 341.737 42.5834H341.737C342.397 42.576 343.057 42.5686 343.714 42.6228C345.349 42.7579 346.032 43.6501 345.992 45.3332C345.958 46.9215 345.12 47.807 343.518 47.8881C342.93 47.9205 342.343 47.9117 341.756 47.9029C341.485 47.8989 341.214 47.8949 340.942 47.8949ZM338 59.3903C338.423 59.806 339.259 59.8009 340.963 59.7908L340.969 59.7841C341.255 59.7841 341.541 59.79 341.826 59.7958C342.459 59.8088 343.089 59.8218 343.714 59.7706C345.147 59.6489 345.951 58.8513 345.998 57.3711C346.046 55.9246 345.451 54.9446 343.937 54.8297C343.232 54.7776 342.525 54.7727 341.818 54.7679C340.966 54.762 340.115 54.7561 339.273 54.6675C337.813 54.512 337.475 55.0189 337.516 56.4248C337.566 58.1247 337.573 58.9712 338 59.3903Z" fill="#B9244C"/>
<path fill-rule="evenodd" clip-rule="evenodd" d="M155.946 50.7202C159.035 52.5451 160.536 55.0798 160.583 58.4999C160.61 60.7709 159.718 62.5621 158.095 64.0491C155.662 66.2796 152.675 67.1245 149.471 67.1651C146.233 67.2059 142.995 67.2019 139.758 67.1978H139.758H139.758C137.109 67.1944 134.462 67.1911 131.816 67.2124C130.762 67.2191 130.444 66.942 130.451 65.8673C130.491 56.0734 130.491 46.2794 130.451 36.4855C130.451 35.4649 130.755 35.2351 131.728 35.2418C134.459 35.26 137.19 35.2551 139.92 35.2503C143.292 35.2443 146.663 35.2383 150.032 35.2756C156.703 35.3567 160.941 40.8992 158.947 46.7864C158.406 48.3815 157.305 49.5373 155.946 50.7202ZM144.226 47.9084C142.509 47.9084 141.676 47.9084 141.254 47.4919C140.855 47.0991 140.822 46.3359 140.758 44.8532C140.754 44.7571 140.75 44.6581 140.745 44.5559C140.671 42.8526 141.184 42.3186 142.84 42.5079C143.54 42.5864 144.251 42.5763 144.962 42.5663C145.598 42.5573 146.234 42.5483 146.862 42.6025C148.545 42.7444 149.302 43.7245 149.214 45.4278C149.133 46.9892 148.288 47.8273 146.646 47.9016C146.143 47.9228 145.637 47.9175 145.133 47.9122H145.132C144.83 47.909 144.527 47.9059 144.226 47.9084ZM141.253 59.4013C141.673 59.8111 142.493 59.8111 144.152 59.8111V59.8044C144.401 59.8044 144.652 59.8066 144.903 59.8089C145.405 59.8134 145.909 59.8179 146.409 59.8044C148.322 59.7503 149.201 58.946 149.214 57.2562C149.228 55.6543 148.41 54.8162 146.565 54.7148C145.948 54.6774 145.327 54.6902 144.707 54.7031C143.981 54.7181 143.254 54.7331 142.536 54.6675C141.157 54.5458 140.691 54.904 140.745 56.3843C140.81 58.1227 140.82 58.9792 141.253 59.4013Z" fill="#2F3A8C"/>
<path fill-rule="evenodd" clip-rule="evenodd" d="M259.884 67.1836C260.912 67.1845 261.948 67.1853 262.996 67.1853C262.883 66.9524 262.781 66.7376 262.685 66.5352C262.5 66.1444 262.336 65.8002 262.158 65.4618C261.724 64.6479 261.294 63.832 260.863 63.0162C259.739 60.8846 258.615 58.7536 257.427 56.6614C256.819 55.5867 256.704 54.9784 258.001 54.3701C259.549 53.6401 260.631 52.3491 261.395 50.808C265.051 43.4406 260.455 35.5325 252.243 35.3027C248.263 35.1954 244.284 35.2162 240.304 35.237C238.018 35.249 235.732 35.2609 233.446 35.2486C232.608 35.2486 232.337 35.4717 232.337 36.3301C232.364 46.2321 232.364 56.141 232.337 66.043C232.337 66.969 232.648 67.2259 233.554 67.2124C236.575 67.1583 239.603 67.1448 242.625 67.2124C243.625 67.2326 243.922 66.9555 243.895 65.9552C243.828 63.1569 243.855 60.3586 243.888 57.5604C243.888 57.4435 243.867 57.3114 243.845 57.1759C243.778 56.7549 243.705 56.3009 244.247 56.168C244.875 56.0095 245.05 56.4952 245.212 56.9472C245.258 57.0735 245.302 57.1972 245.355 57.3035C246.355 59.3122 247.339 61.3304 248.322 63.3473C248.775 64.2758 249.227 65.204 249.681 66.1309C249.706 66.1838 249.731 66.2369 249.755 66.2897C249.971 66.7569 250.174 67.1988 250.891 67.1988C253.863 67.1786 256.836 67.1811 259.884 67.1836ZM246.407 48.9434C246.836 48.8913 247.251 48.841 247.593 48.875V48.8682C248.024 48.8682 248.424 48.8723 248.803 48.8763C249.505 48.8836 250.135 48.8901 250.763 48.8682C252.898 48.8006 253.96 47.7259 253.973 45.6711C253.987 43.6299 252.932 42.5079 250.803 42.4268C249.792 42.3844 248.778 42.3945 247.764 42.4045C247.321 42.4089 246.879 42.4133 246.437 42.4133C243.868 42.4133 243.841 42.4133 243.882 44.9074C243.888 45.2949 243.839 45.7173 243.791 46.1398C243.679 47.11 243.567 48.0807 244.118 48.6316C244.644 49.1574 245.555 49.0468 246.407 48.9434Z" fill="#2F3A8C"/>
<defs>
<clipPath id="clip0_119_99">
<rect width="420" height="126" fill="white" transform="translate(9 125)"/>
</clipPath>
</defs>
</svg>
