<svg width="625" height="476" viewBox="0 0 625 476" fill="none" xmlns="http://www.w3.org/2000/svg">
<g filter="url(#filter0_ii_304_9756)">
<path d="M462.449 152.512C462.449 68.7424 395.115 0.833984 312.054 0.833984C228.993 0.833984 161.659 68.7424 161.659 152.512V293.698C161.659 306.775 172.26 317.375 185.336 317.375H438.772C451.848 317.375 462.449 306.775 462.449 293.698V152.512Z" fill="black"/>
</g>
<path d="M407.558 139.944C407.558 149.764 407.627 159.583 407.558 169.403C407.601 174.295 405.986 179.057 402.977 182.914C399.967 186.771 395.74 189.495 390.985 190.643C387.873 191.423 384.629 191.513 381.48 190.908C378.33 190.303 375.35 189.017 372.749 187.139C370.149 185.262 367.99 182.839 366.423 180.04C364.857 177.241 363.921 174.134 363.681 170.936C363.598 169.554 363.681 168.284 363.681 166.958C363.681 148.203 363.681 129.448 363.681 110.68C363.679 104.926 365.936 99.4016 369.967 95.2961C373.998 91.1906 379.48 88.8323 385.233 88.7291C390.985 88.6259 396.548 90.786 400.724 94.7443C404.899 98.7026 407.353 104.142 407.558 109.892C407.723 119.836 407.558 129.904 407.558 139.944Z" fill="white"/>
<path d="M216.556 140.096C216.556 130.166 216.556 120.223 216.556 110.293C216.572 104.915 218.558 99.7289 222.139 95.7166C225.721 91.7042 230.648 89.1437 235.99 88.5193C241.332 87.895 246.717 89.2501 251.127 92.3285C255.537 95.4068 258.666 99.9947 259.921 105.224C260.383 107.272 260.592 109.368 260.543 111.467C260.543 130.443 260.543 149.423 260.543 168.408C260.543 176.322 257.615 182.868 251 187.384C247.745 189.633 243.943 190.961 239.996 191.227C236.048 191.493 232.102 190.687 228.576 188.894C225.049 187.1 222.073 184.387 219.962 181.041C217.851 177.695 216.683 173.841 216.583 169.886C216.362 159.956 216.556 150.026 216.556 140.096Z" fill="white"/>
<path d="M393.111 139.751C393.111 149.032 393.111 158.308 393.111 167.58C393.205 169.012 393.031 170.45 392.6 171.82C391.988 173.375 390.873 174.681 389.432 175.529C387.992 176.378 386.309 176.719 384.652 176.5C382.995 176.281 381.459 175.513 380.289 174.319C379.118 173.126 378.381 171.575 378.195 169.914C378.154 169.251 378.154 168.587 378.195 167.925C378.195 149.156 378.195 130.388 378.195 111.619C378.089 109.966 378.489 108.32 379.343 106.901C380.197 105.482 381.464 104.357 382.974 103.678C384 103.266 385.104 103.09 386.207 103.16C387.31 103.231 388.384 103.547 389.349 104.086C390.314 104.625 391.146 105.372 391.785 106.274C392.424 107.176 392.853 108.209 393.042 109.299C393.182 110.393 393.233 111.497 393.193 112.599C393.147 121.641 393.12 130.691 393.111 139.751Z" fill="black"/>
<path d="M231.029 139.847V112.019C230.914 110.474 231.16 108.923 231.747 107.489C232.398 106.14 233.425 105.008 234.704 104.229C235.983 103.45 237.459 103.057 238.956 103.097C240.514 103.22 241.997 103.815 243.208 104.802C244.42 105.788 245.302 107.121 245.737 108.621C246.045 109.797 246.175 111.012 246.124 112.226V167.551C246.168 168.765 246.038 169.979 245.737 171.156C245.27 172.82 244.24 174.27 242.823 175.26C241.406 176.25 239.69 176.718 237.967 176.584C236.244 176.451 234.62 175.724 233.373 174.528C232.125 173.331 231.331 171.74 231.126 170.024C231.031 169.037 230.999 168.045 231.029 167.054C231.02 157.967 231.02 148.898 231.029 139.847Z" fill="black"/>
<path d="M256.112 238.249C256.112 212.322 277.13 191.304 303.057 191.304H321.052C346.979 191.304 367.997 212.322 367.997 238.249C367.997 264.175 346.979 285.193 321.052 285.193H303.057C277.13 285.193 256.112 264.175 256.112 238.249Z" fill="#F44527"/>
<path d="M312.004 396.725C290.219 396.725 272.563 411.381 272.563 435.914C272.563 461.663 290.219 475.089 312.004 475.089C325.711 475.089 344.076 469.412 349.79 451.772C349.894 451.447 349.921 451.103 349.867 450.766C349.812 450.429 349.679 450.11 349.477 449.834C349.275 449.558 349.011 449.333 348.705 449.178C348.399 449.023 348.061 448.941 347.718 448.94H325.475C325.167 448.944 324.864 449.011 324.584 449.137C324.304 449.263 324.054 449.445 323.848 449.672C322.354 451.275 320.516 452.525 318.471 453.328C316.426 454.131 314.225 454.468 312.031 454.314C303.037 454.162 297.893 447.407 298.254 441.882H350.79C351.166 439.908 351.389 437.908 351.458 435.9C352.626 410.124 333.802 396.711 312.031 396.711L312.004 396.725ZM298.31 429.256C298.31 424.007 302.481 417.459 312.059 417.459C321.638 417.459 325.489 423.717 325.739 429.256H298.31Z" fill="black"/>
<path d="M100.457 396.378C91.768 396.378 81.1468 400.26 74.9742 407.512C71.2206 402.677 64.4364 396.378 51.3406 396.378C38.2448 396.378 30.7933 401.213 26.7894 405.205V400.688C26.7858 399.723 26.3974 398.799 25.7095 398.118C25.0216 397.437 24.0902 397.055 23.1193 397.055H3.65627C2.68657 397.055 1.7566 397.438 1.07092 398.119C0.385234 398.8 0 399.724 0 400.688V469.825C-6.96578e-06 470.79 0.384782 471.715 1.07007 472.399C1.75535 473.082 2.68529 473.468 3.65627 473.472H23.1193C24.0926 473.472 25.0262 473.088 25.7145 472.404C26.4027 471.72 26.7894 470.792 26.7894 469.825V432.639C26.7894 428.393 27.948 425.119 30.265 422.817C31.5276 421.639 33.0174 420.726 34.6445 420.135C36.2716 419.544 38.0023 419.286 39.7323 419.378C41.4064 419.295 43.0799 419.552 44.6504 420.134C46.221 420.716 47.6555 421.61 48.866 422.762C50.0477 424.032 50.9585 425.526 51.5439 427.154C52.1292 428.783 52.377 430.512 52.2721 432.238V469.811C52.2721 470.778 52.6587 471.706 53.347 472.39C54.0353 473.074 54.9688 473.458 55.9422 473.458H75.294C76.2674 473.458 77.2009 473.074 77.8892 472.39C78.5775 471.706 78.9641 470.778 78.9641 469.811V432.639C78.9641 428.393 80.1181 425.119 82.4258 422.817C83.6885 421.639 85.1782 420.726 86.8053 420.135C88.4324 419.544 90.1632 419.286 91.8932 419.378C93.5674 419.293 95.2414 419.549 96.8121 420.131C98.3829 420.713 99.8172 421.609 101.027 422.762C102.208 424.032 103.119 425.526 103.705 427.154C104.29 428.783 104.538 430.512 104.433 432.238V469.811C104.433 470.778 104.82 471.706 105.508 472.39C106.196 473.074 107.13 473.458 108.103 473.458H127.469C128.442 473.458 129.376 473.074 130.064 472.39C130.752 471.706 131.139 470.778 131.139 469.811V428.868C131.139 418.738 128.437 410.795 123.034 405.039C117.626 399.265 108.701 396.378 100.485 396.378" fill="black"/>
<path d="M235.415 473.473H254.544C255.517 473.473 256.451 473.088 257.139 472.405C257.828 471.721 258.214 470.793 258.214 469.826V369.387C258.215 368.399 257.833 367.448 257.147 366.733C256.461 366.018 255.524 365.593 254.53 365.547L235.415 365.754C234.444 365.754 233.512 366.136 232.824 366.817C232.137 367.498 231.748 368.422 231.745 369.387V469.826C231.745 470.793 232.131 471.721 232.82 472.405C233.508 473.088 234.441 473.473 235.415 473.473Z" fill="black"/>
<path d="M181.778 396.89C173.977 396.89 166.351 399.188 159.865 403.495C153.379 407.802 148.324 413.923 145.339 421.085C142.354 428.247 141.574 436.127 143.097 443.729C144.62 451.332 148.378 458.315 153.895 463.795C159.412 469.275 166.441 473.006 174.092 474.517C181.744 476.027 189.675 475.249 196.881 472.281C204.088 469.313 210.246 464.288 214.578 457.841C218.911 451.395 221.221 443.817 221.219 436.065C221.219 430.919 220.198 425.824 218.216 421.07C216.234 416.316 213.329 411.997 209.666 408.359C206.003 404.721 201.655 401.836 196.87 399.868C192.085 397.9 186.957 396.888 181.778 396.89ZM181.778 452.075C178.592 452.075 175.476 451.136 172.827 449.377C170.177 447.618 168.112 445.117 166.892 442.192C165.673 439.266 165.354 436.047 165.975 432.942C166.597 429.836 168.132 426.983 170.385 424.744C172.638 422.505 175.509 420.98 178.635 420.363C181.76 419.745 185 420.062 187.944 421.274C190.889 422.486 193.405 424.538 195.175 427.17C196.946 429.803 197.891 432.899 197.891 436.065C197.887 440.31 196.188 444.38 193.168 447.382C190.147 450.384 186.051 452.071 181.778 452.075Z" fill="black"/>
<path d="M584.681 396.724C576.88 396.721 569.253 399.017 562.765 403.321C556.278 407.626 551.22 413.746 548.233 420.906C545.246 428.067 544.463 435.947 545.983 443.55C547.503 451.153 551.258 458.137 556.774 463.619C562.289 469.101 569.317 472.835 576.968 474.348C584.619 475.861 592.55 475.086 599.757 472.12C606.965 469.155 613.125 464.132 617.46 457.687C621.794 451.242 624.108 443.664 624.108 435.913C624.108 425.522 619.954 415.556 612.561 408.207C605.167 400.858 595.139 396.727 584.681 396.724ZM584.681 451.909C581.493 451.912 578.376 450.975 575.724 449.217C573.072 447.458 571.005 444.958 569.784 442.032C568.563 439.106 568.242 435.886 568.863 432.779C569.485 429.672 571.02 426.818 573.274 424.578C575.528 422.338 578.4 420.813 581.527 420.196C584.654 419.579 587.895 419.897 590.84 421.11C593.784 422.324 596.301 424.378 598.07 427.013C599.84 429.648 600.783 432.745 600.78 435.913C600.772 440.153 599.074 444.218 596.056 447.216C593.039 450.214 588.948 451.902 584.681 451.909Z" fill="black"/>
<path d="M417.421 404.128C411.834 399.23 404.602 396.588 397.152 396.724C376.938 396.724 361.938 413.95 361.938 435.582C361.938 455.142 373.059 471.359 391.132 474.26C393.263 474.686 395.44 474.844 397.611 474.73C404.889 474.532 411.879 471.866 417.421 467.174V470.102C417.421 471.069 417.808 471.997 418.496 472.681C419.184 473.365 420.118 473.749 421.091 473.749H438.552C439.523 473.745 440.453 473.36 441.139 472.676C441.824 471.993 442.209 471.067 442.209 470.102V369.138C442.209 368.171 441.822 367.244 441.134 366.56C440.445 365.876 439.512 365.492 438.538 365.492H421.105C420.134 365.495 419.204 365.881 418.519 366.565C417.834 367.248 417.449 368.174 417.449 369.138L417.421 404.128ZM418.811 436.024C418.696 439.855 417.2 443.516 414.596 446.344C411.993 449.171 408.454 450.975 404.625 451.429C400.795 451.882 396.929 450.954 393.73 448.814C390.53 446.674 388.21 443.464 387.192 439.768C386.174 436.071 386.525 432.135 388.182 428.674C389.838 425.213 392.69 422.459 396.218 420.911C399.747 419.363 403.717 419.126 407.407 420.241C411.096 421.357 414.26 423.752 416.323 426.99C417.862 429.762 418.715 432.859 418.811 436.024Z" fill="black"/>
<path d="M509.061 404.35C504.626 399.929 498.245 396.683 488.805 396.683C468.592 396.725 453.563 413.909 453.563 435.541C453.563 455.101 464.685 471.318 482.758 474.219C484.893 474.651 487.075 474.809 489.25 474.689C496.489 474.705 503.506 472.208 509.088 467.63V470.13C509.088 471.097 509.475 472.025 510.163 472.709C510.852 473.393 511.785 473.777 512.759 473.777H530.22C531.193 473.777 532.127 473.393 532.815 472.709C533.503 472.025 533.89 471.097 533.89 470.13V400.33C533.89 399.363 533.503 398.435 532.815 397.751C532.127 397.067 531.193 396.683 530.22 396.683H512.731C511.757 396.683 510.824 397.067 510.136 397.751C509.447 398.435 509.061 399.363 509.061 400.33V404.35ZM510.451 435.541C510.451 436.162 510.451 436.743 510.353 437.337C509.892 441.398 507.883 445.129 504.74 447.765C501.597 450.401 497.558 451.741 493.452 451.512C489.345 451.282 485.483 449.499 482.657 446.529C479.832 443.559 478.258 439.628 478.258 435.541C478.258 431.454 479.832 427.522 482.657 424.552C485.483 421.582 489.345 419.8 493.452 419.57C497.558 419.34 501.597 420.681 504.74 423.317C507.883 425.953 509.892 429.684 510.353 433.745C510.353 434.339 510.451 434.933 510.451 435.541Z" fill="black"/>
<defs>
<filter id="filter0_ii_304_9756" x="149.659" y="-7.16602" width="324.79" height="332.542" filterUnits="userSpaceOnUse" color-interpolation-filters="sRGB">
<feFlood flood-opacity="0" result="BackgroundImageFix"/>
<feBlend mode="normal" in="SourceGraphic" in2="BackgroundImageFix" result="shape"/>
<feColorMatrix in="SourceAlpha" type="matrix" values="0 0 0 0 0 0 0 0 0 0 0 0 0 0 0 0 0 0 127 0" result="hardAlpha"/>
<feOffset dx="-12" dy="-8"/>
<feGaussianBlur stdDeviation="8"/>
<feComposite in2="hardAlpha" operator="arithmetic" k2="-1" k3="1"/>
<feColorMatrix type="matrix" values="0 0 0 0 0.16059 0 0 0 0 0.178494 0 0 0 0 0.208333 0 0 0 1 0"/>
<feBlend mode="normal" in2="shape" result="effect1_innerShadow_304_9756"/>
<feColorMatrix in="SourceAlpha" type="matrix" values="0 0 0 0 0 0 0 0 0 0 0 0 0 0 0 0 0 0 127 0" result="hardAlpha"/>
<feOffset dx="12" dy="8"/>
<feGaussianBlur stdDeviation="8"/>
<feComposite in2="hardAlpha" operator="arithmetic" k2="-1" k3="1"/>
<feColorMatrix type="matrix" values="0 0 0 0 0.285833 0 0 0 0 0.309896 0 0 0 0 0.35 0 0 0 1 0"/>
<feBlend mode="normal" in2="effect1_innerShadow_304_9756" result="effect2_innerShadow_304_9756"/>
</filter>
</defs>
</svg>
