<svg fill="none" height="801" viewBox="0 0 709 801" width="709" xmlns="http://www.w3.org/2000/svg" xmlns:xlink="http://www.w3.org/1999/xlink"><mask id="a" height="79" maskUnits="userSpaceOnUse" width="277" x="220" y="383"><path d="m220.775 383.063h275.428v78.525h-275.428z" fill="#fff"/></mask><mask id="b" height="68" maskUnits="userSpaceOnUse" width="59" x="200" y="338"><path d="m200.5 338.068h57.99v67.025h-57.99z" fill="#fff"/></mask><mask id="c" height="102" maskUnits="userSpaceOnUse" width="293" x="209" y="475"><path d="m209.426 576.314h292.229v-101.214h-292.229z" fill="#fff"/></mask><mask id="d" height="102" maskUnits="userSpaceOnUse" width="293" x="209" y="475"><path d="m209.426 576.314h292.229v-101.214h-292.229z" fill="#fff"/></mask><mask id="e" height="102" maskUnits="userSpaceOnUse" width="293" x="209" y="475"><path d="m209.426 576.314h292.229v-101.214h-292.229z" fill="#fff"/></mask><mask id="f" height="102" maskUnits="userSpaceOnUse" width="293" x="209" y="475"><path d="m209.426 576.314h292.229v-101.214h-292.229z" fill="#fff"/></mask><mask id="g" height="102" maskUnits="userSpaceOnUse" width="293" x="209" y="475"><path d="m209.426 576.314h292.229v-101.214h-292.229z" fill="#fff"/></mask><path d="m.5.899414h708v800h-708z" fill="#eff5fb"/><g mask="url(#a)"><path clip-rule="evenodd" d="m295.466 456.885c-23.417 0-46.636-8.297-66.489-24.212l-3.499-2.813 35.81-40.433c.753-.85 1.813-1.366 2.946-1.435s2.248.315 3.098 1.068 1.366 1.812 1.435 2.946c.069 1.133-.315 2.248-1.068 3.098l-29.795 33.632c25.021 18.451 55.234 24.212 83.561 15.789l34.668-10.324 34.667 10.324c28.313 8.423 58.521 2.662 83.547-15.775l-30.171-33.853c-.754-.849-1.141-1.962-1.075-3.095.066-1.134.58-2.194 1.428-2.949s1.961-1.141 3.095-1.075c1.133.066 2.194.58 2.948 1.428l36.224 40.649-3.513 2.822c-27.918 22.387-62.515 29.696-94.924 20.05l-32.226-9.59-32.227 9.595c-9.229 2.754-18.808 4.155-28.44 4.157" fill="#000" fill-rule="evenodd"/><path d="m295.466 456.885c-23.417 0-46.636-8.297-66.489-24.212l-3.499-2.813 35.81-40.433c.753-.85 1.813-1.366 2.946-1.435s2.248.315 3.098 1.068 1.366 1.812 1.435 2.946c.069 1.133-.315 2.248-1.068 3.098l-29.795 33.632c25.021 18.451 55.234 24.212 83.561 15.789l34.668-10.324 34.667 10.324c28.313 8.423 58.521 2.662 83.547-15.775l-30.171-33.853c-.754-.849-1.141-1.962-1.075-3.095.066-1.134.58-2.194 1.428-2.949s1.961-1.141 3.095-1.075c1.133.066 2.194.58 2.948 1.428l36.224 40.649-3.513 2.822c-27.918 22.387-62.515 29.696-94.924 20.05l-32.226-9.59-32.227 9.595c-9.229 2.754-18.808 4.155-28.44 4.157" stroke="#000" stroke-linejoin="round" stroke-width="1.23245"/></g><g clip-rule="evenodd" fill="#000" fill-rule="evenodd"><path d="m356.124 438.89-70.534-40.701c-7.824-5.673-14.17-13.143-18.502-21.782-4.333-8.639-6.525-18.192-6.392-27.856l.597-41.66 28.205 9.265c.543.167 1.047.441 1.483.805s.795.812 1.056 1.316c.261.505.418 1.056.464 1.623.045.566-.023 1.135-.2 1.675s-.46 1.039-.832 1.468-.826.779-1.335 1.031c-.51.252-1.064.399-1.631.435-.567.035-1.135-.044-1.671-.231l-17.148-5.625-.433 30.021c-.113 8.253 1.752 16.414 5.437 23.8 3.685 7.385 9.084 13.782 15.746 18.655l65.718 37.899 66.503-37.908c6.694-4.866 12.121-11.27 15.824-18.671 3.703-7.402 5.573-15.585 5.453-23.86l-.423-29.992-19.542 6.232c-1.081.344-2.256.246-3.264-.275-1.009-.521-1.769-1.421-2.114-2.503-.345-1.081-.246-2.255.275-3.264.521-1.008 1.421-1.769 2.502-2.114l30.538-9.731.583 41.529c.137 9.687-2.065 19.265-6.419 27.919s-10.732 16.131-18.592 21.794l-.381.245-70.976 40.456z" stroke="#000" stroke-linecap="round" stroke-linejoin="round" stroke-width="1.23245"/><path d="m356.316 370.924-59.485-34.004 59.485 84.093 58.179-84.093z"/><path d="m356.317 225.483-57.629 96.138 57.511 34.898 58.301-34.428z"/></g><g mask="url(#b)"><path clip-rule="evenodd" d="m237.392 400.39c-.969-.002-1.909-.332-2.666-.937s-1.286-1.448-1.501-2.393c-2.841-12.487-10.865-25.802-23.196-38.51l-4.826-4.957 6.599-2.098c14.556-4.627 27.278-5.258 38.89-1.904 1.09.314 2.011 1.049 2.56 2.042.548.993.68 2.163.366 3.253-.315 1.091-1.049 2.011-2.042 2.56-.994.549-2.164.68-3.254.366-8.325-2.399-17.139-2.418-27.344 0 10.723 12.275 17.801 25.082 20.595 37.353.139.627.136 1.277-.009 1.903-.146.626-.43 1.211-.832 1.712-.401.502-.91.907-1.489 1.185-.579.279-1.214.424-1.856.425" fill="#000" fill-rule="evenodd"/><path d="m237.392 400.39c-.969-.002-1.909-.332-2.666-.937s-1.286-1.448-1.501-2.393c-2.841-12.487-10.865-25.802-23.196-38.51l-4.826-4.957 6.599-2.098c14.556-4.627 27.278-5.258 38.89-1.904 1.09.314 2.011 1.049 2.56 2.042.548.993.68 2.163.366 3.253-.315 1.091-1.049 2.011-2.042 2.56-.994.549-2.164.68-3.254.366-8.325-2.399-17.139-2.418-27.344 0 10.723 12.275 17.801 25.082 20.595 37.353.139.627.136 1.277-.009 1.903-.146.626-.43 1.211-.832 1.712-.401.502-.91.907-1.489 1.185-.579.279-1.214.424-1.856.425" stroke="#000" stroke-linecap="round" stroke-linejoin="round" stroke-width="1.23245"/></g><path clip-rule="evenodd" d="m475.307 400.39c-.643-.001-1.277-.146-1.857-.425-.579-.278-1.088-.684-1.489-1.186s-.684-1.089-.828-1.715c-.143-.626-.145-1.277-.003-1.904 2.799-12.271 9.877-25.073 20.596-37.348-10.206-2.418-19.015-2.399-27.345 0-.539.156-1.104.205-1.663.143-.558-.063-1.098-.235-1.59-.507-.492-.271-.925-.638-1.274-1.077-.35-.44-.61-.944-.764-1.485-.157-.539-.206-1.104-.144-1.662s.233-1.098.504-1.59.636-.926 1.074-1.276c.439-.351.943-.612 1.482-.767 11.617-3.354 24.344-2.723 38.895 1.904l6.599 2.098-4.821 4.957c-12.336 12.704-20.355 26.018-23.201 38.51-.215.945-.744 1.788-1.501 2.393s-1.697.935-2.666.937" fill="#000" fill-rule="evenodd"/><path d="m475.307 400.39c-.643-.001-1.277-.146-1.857-.424-.579-.279-1.088-.685-1.489-1.187s-.684-1.089-.828-1.715c-.143-.626-.145-1.277-.003-1.904 2.799-12.271 9.877-25.073 20.596-37.348-10.206-2.418-19.015-2.399-27.345 0-.539.156-1.104.205-1.663.143-.558-.063-1.098-.235-1.59-.507-.492-.271-.925-.638-1.274-1.077-.35-.44-.61-.944-.764-1.485-.157-.539-.206-1.104-.144-1.662s.233-1.098.504-1.59.636-.926 1.074-1.276c.439-.351.943-.612 1.482-.767 11.617-3.354 24.344-2.723 38.895 1.904l6.599 2.098-4.821 4.957c-12.336 12.704-20.355 26.018-23.201 38.51-.215.945-.744 1.788-1.501 2.393s-1.697.935-2.666.937" stroke="#000" stroke-width="1.23245"/><path clip-rule="evenodd" d="m288.078 307.493c-.603.001-1.199-.126-1.749-.371-.551-.245-1.043-.604-1.445-1.053s-.704-.978-.887-1.552-.243-1.181-.176-1.779l3.406-30.444 21.328 14.542c.909.651 1.528 1.631 1.724 2.732.195 1.1-.047 2.233-.676 3.157-.63.924-1.595 1.566-2.691 1.787-1.095.221-2.234.005-3.173-.602l-9.589-6.538-1.825 16.316c-.117 1.045-.614 2.011-1.398 2.712-.783.702-1.797 1.091-2.849 1.093z" fill="#000" fill-rule="evenodd"/><path d="m288.078 307.493c-.603.001-1.199-.126-1.749-.371-.551-.245-1.043-.604-1.445-1.053s-.704-.978-.887-1.552-.243-1.181-.176-1.779l3.406-30.444 21.328 14.542c.909.651 1.528 1.631 1.724 2.732.195 1.1-.047 2.233-.676 3.157-.63.924-1.595 1.566-2.691 1.787-1.095.221-2.234.005-3.173-.602l-9.589-6.538-1.825 16.316c-.117 1.045-.614 2.011-1.398 2.712-.783.702-1.797 1.091-2.849 1.093" stroke="#000" stroke-linejoin="round" stroke-width="1.23245"/><path clip-rule="evenodd" d="m423.196 307.493c-1.04-.001-2.044-.381-2.823-1.07-.779-.688-1.281-1.637-1.41-2.669l-2.098-16.447-9.679 6.603c-.938.64-2.092.88-3.207.669s-2.101-.857-2.74-1.795-.88-2.092-.669-3.207c.212-1.115.857-2.101 1.795-2.74l21.23-14.477 3.852 30.317c.076.603.023 1.215-.156 1.796s-.479 1.117-.881 1.573c-.403.455-.897.82-1.451 1.07-.555.249-1.156.378-1.763.377z" fill="#000" fill-rule="evenodd"/><path d="m423.196 307.493c-1.04-.001-2.044-.381-2.823-1.07-.779-.688-1.281-1.637-1.41-2.669l-2.098-16.447-9.679 6.603c-.938.64-2.092.88-3.207.669s-2.101-.857-2.74-1.795-.88-2.092-.669-3.207c.212-1.115.857-2.101 1.795-2.74l21.23-14.477 3.852 30.317c.076.603.023 1.215-.156 1.796s-.479 1.117-.881 1.573c-.403.455-.897.82-1.451 1.07-.555.249-1.156.378-1.763.377" stroke="#000" stroke-linecap="round" stroke-linejoin="round" stroke-width="1.23245"/><path clip-rule="evenodd" d="m331.639 501.742v23.655h-28.159v-23.651h-94.636v56.129h43.236v-8.819h-31.716v-14.838h31.718v-8.819h-31.718v-14.833h45.955v47.309h11.515v-47.309h14.126v47.309h11.518v-23.657h28.161v23.655h11.515v-56.127z" fill="#000" fill-rule="evenodd"/><g mask="url(#c)"><path clip-rule="evenodd" d="m350.768 557.874h9.122v-56.313h-9.122z" fill="#000" fill-rule="evenodd"/></g><g mask="url(#d)"><path clip-rule="evenodd" d="m367.922 519.743h8.849v3.523c3.08-3.053 6.551-4.579 10.413-4.579 4.437 0 7.895 1.396 10.373 4.189 2.142 2.373 3.213 6.249 3.213 11.627v23.371h-8.847v-21.295c0-3.758-.525-6.354-1.566-7.79-1.023-1.462-2.875-2.192-5.563-2.192-2.923 0-4.998.966-6.226 2.897-1.201 1.905-1.8 5.233-1.8 9.983v18.401h-8.848v-38.135z" fill="#000" fill-rule="evenodd"/></g><g mask="url(#e)"><path d="m413.478 538.69c0 3.656.981 6.632 2.938 8.927 2.007 2.324 4.54 3.485 7.595 3.485 3.261 0 5.896-1.121 7.908-3.366 2.009-2.324 3.015-5.27 3.015-8.848 0-3.576-1.008-6.527-3.015-8.849-2.012-2.268-4.62-3.406-7.828-3.406-3.033 0-5.565 1.148-7.595 3.444-2.012 2.324-3.018 5.197-3.018 8.613zm20.906-37.129h8.849v56.315h-8.849v-3.993c-3.469 3.395-7.398 5.092-11.782 5.092-5.222 0-9.554-1.907-13-5.718-3.423-3.889-5.128-8.744-5.128-14.565 0-5.688 1.707-10.436 5.128-14.249 3.393-3.837 7.66-5.754 12.802-5.754 4.465 0 8.457 1.827 11.98 5.481v-22.611z" fill="#000"/></g><g mask="url(#f)"><path d="m449.541 557.874h8.809v-38.134h-8.809zm-1.332-50.634c0-1.541.561-2.873 1.685-3.994.521-.541 1.148-.97 1.842-1.26.694-.289 1.44-.434 2.191-.424 1.59 0 2.946.563 4.07 1.684 1.121 1.096 1.684 2.44 1.684 4.032 0 1.591-.563 2.95-1.684 4.071-.519.545-1.145.977-1.839 1.267-.694.289-1.441.432-2.193.417-.758.013-1.51-.13-2.21-.42s-1.334-.72-1.861-1.264c-1.124-1.121-1.685-2.49-1.685-4.109z" fill="#000"/></g><g mask="url(#g)"><path d="m471.9 538.69c0 3.655.979 6.631 2.936 8.926 2.009 2.324 4.544 3.486 7.597 3.486 3.261 0 5.9-1.122 7.906-3.366 2.009-2.325 3.017-5.271 3.017-8.849 0-3.576-1.008-6.526-3.017-8.849-2.008-2.268-4.618-3.406-7.828-3.406-3.028 0-5.561 1.149-7.596 3.444-2.009 2.324-3.015 5.197-3.015 8.614zm20.906-18.947h8.849v38.133h-8.849v-3.996c-3.626 3.395-7.53 5.092-11.704 5.092-5.275 0-9.632-1.907-13.08-5.718-3.417-3.889-5.124-8.744-5.124-14.564 0-5.716 1.707-10.479 5.124-14.29 3.422-3.811 7.7-5.712 12.844-5.712 4.437 0 8.417 1.823 11.94 5.477z" fill="#000"/></g></svg>